<svg width="24" height="24" viewBox="0 0 24 24" fill="none" xmlns="http://www.w3.org/2000/svg">
<path d="M7 10.0005C7 9.44749 7.448 9.00049 8 9.00049H16C16.552 9.00049 17 9.44749 17 10.0005C17 10.5535 16.552 11.0005 16 11.0005H8C7.448 11.0005 7 10.5535 7 10.0005ZM9 8.00049H15C15.552 8.00049 16 7.55349 16 7.00049C16 6.44749 15.552 6.00049 15 6.00049H9C8.448 6.00049 8 6.44749 8 7.00049C8 7.55349 8.448 8.00049 9 8.00049ZM22 13.4875V16.0005C22 18.7575 19.757 21.0005 17 21.0005H7C4.243 21.0005 2 18.7575 2 16.0005V13.4875C2 13.0555 2.06902 12.6294 2.20502 12.2214L4.14001 6.41846C4.82201 4.37346 6.728 2.99951 8.883 2.99951H15.117C17.272 2.99951 19.179 4.37346 19.86 6.41846L21.795 12.2214C21.931 12.6294 22 13.0565 22 13.4875ZM4.38702 12.0005H9C9.552 12.0005 10 12.4475 10 13.0005C10 14.1035 10.897 15.0005 12 15.0005C13.103 15.0005 14 14.1035 14 13.0005C14 12.4475 14.448 12.0005 15 12.0005H19.613L17.963 7.05249C17.554 5.82449 16.41 5.00049 15.117 5.00049H8.883C7.59 5.00049 6.44599 5.82449 6.03699 7.05249L4.38702 12.0005ZM20 16.0005V14.0005H15.874C15.429 15.7245 13.861 17.0005 12 17.0005C10.139 17.0005 8.57198 15.7245 8.12598 14.0005H4V16.0005C4 17.6545 5.346 19.0005 7 19.0005H17C18.654 19.0005 20 17.6545 20 16.0005Z" fill="#A7AEC1"/>
</svg>
