<svg width="20" height="20" viewBox="0 0 20 20" fill="none" xmlns="http://www.w3.org/2000/svg">
<path d="M10 14C9.20887 14 8.43552 13.7654 7.77772 13.3259C7.11992 12.8864 6.60723 12.2616 6.30448 11.5307C6.00173 10.7998 5.92252 9.99556 6.07686 9.21964C6.2312 8.44372 6.61216 7.73098 7.17157 7.17157C7.73098 6.61216 8.44372 6.2312 9.21964 6.07686C9.99556 5.92252 10.7998 6.00173 11.5307 6.30448C12.2616 6.60723 12.8864 7.11992 13.3259 7.77772C13.7654 8.43552 14 9.20887 14 10C14 11.0609 13.5786 12.0783 12.8284 12.8284C12.0783 13.5786 11.0609 14 10 14ZM10 8C9.60444 8 9.21776 8.1173 8.88886 8.33706C8.55996 8.55682 8.30362 8.86918 8.15224 9.23463C8.00087 9.60009 7.96126 10.0022 8.03843 10.3902C8.1156 10.7781 8.30608 11.1345 8.58579 11.4142C8.86549 11.6939 9.22186 11.8844 9.60982 11.9616C9.99778 12.0387 10.3999 11.9991 10.7654 11.8478C11.1308 11.6964 11.4432 11.44 11.6629 11.1111C11.8827 10.7822 12 10.3956 12 10C12 9.46957 11.7893 8.96086 11.4142 8.58579C11.0391 8.21071 10.5304 8 10 8ZM10.5 20H9.5C8.83696 20 8.20107 19.7366 7.73223 19.2678C7.26339 18.7989 7 18.163 7 17.5C7.00199 17.4769 6.99644 17.4538 6.98418 17.4342C6.97192 17.4145 6.95361 17.3994 6.932 17.391C6.883 17.367 6.826 17.419 6.826 17.419C6.35675 17.8889 5.72042 18.1536 5.05636 18.1553C4.3923 18.157 3.75463 17.8955 3.283 17.428L2.577 16.721C2.34458 16.4884 2.16033 16.2122 2.03481 15.9082C1.90929 15.6043 1.84497 15.2786 1.84553 14.9498C1.84609 14.6209 1.91151 14.2954 2.03806 13.9919C2.16461 13.6884 2.34979 13.4128 2.583 13.181C2.59976 13.1658 2.61087 13.1453 2.6145 13.123C2.61813 13.1007 2.61408 13.0777 2.603 13.058C2.59164 13.0409 2.57638 13.0267 2.55847 13.0166C2.54057 13.0065 2.52053 13.0008 2.5 13C1.83696 13 1.20107 12.7366 0.732233 12.2678C0.263392 11.7989 0 11.163 0 10.5V9.5C0 8.83696 0.263392 8.20107 0.732233 7.73223C1.20107 7.26339 1.83696 7 2.5 7C2.52231 7.00121 2.54448 6.99577 2.56371 6.98438C2.58293 6.97299 2.59834 6.95615 2.608 6.936C2.61538 6.91915 2.61722 6.90039 2.61327 6.88242C2.60932 6.86445 2.59977 6.8482 2.586 6.836C2.352 6.60386 2.16605 6.32787 2.03879 6.02382C1.91153 5.71976 1.84546 5.3936 1.84434 5.06399C1.84323 4.73438 1.9071 4.40778 2.0323 4.10287C2.1575 3.79796 2.34157 3.52072 2.574 3.287L3.282 2.578C3.75172 2.11103 4.38715 1.84892 5.0495 1.84892C5.71185 1.84892 6.34728 2.11103 6.817 2.578C6.83074 2.59748 6.85099 2.6114 6.87409 2.61727C6.89719 2.62314 6.92163 2.62056 6.943 2.61C7 2.58 7 2.5 7 2.5C7 1.83696 7.26339 1.20107 7.73223 0.732233C8.20107 0.263392 8.83696 0 9.5 0H10.5C11.163 0 11.7989 0.263392 12.2678 0.732233C12.7366 1.20107 13 1.83696 13 2.5C13 2.5 12.995 2.6 13.05 2.62C13.0702 2.62632 13.0916 2.62734 13.1123 2.62296C13.1329 2.61858 13.1521 2.60895 13.168 2.595C13.3998 2.35747 13.6768 2.16875 13.9827 2.03994C14.2885 1.91113 14.6171 1.84485 14.949 1.845C15.2775 1.84384 15.6029 1.90795 15.9064 2.03361C16.2099 2.15927 16.4855 2.34398 16.717 2.577L17.417 3.277C17.8857 3.74582 18.149 4.38159 18.149 5.0445C18.149 5.70741 17.8857 6.34318 17.417 6.812C17.403 6.833 17.345 6.876 17.368 6.936C17.3706 6.94705 17.3753 6.95749 17.382 6.9667C17.3886 6.97591 17.397 6.98371 17.4067 6.98966C17.4163 6.99561 17.4271 6.99959 17.4383 7.00136C17.4495 7.00314 17.461 7.00267 17.472 7C17.8023 6.9975 18.1299 7.06025 18.4359 7.18465C18.7419 7.30906 19.0204 7.49267 19.2552 7.72495C19.4901 7.95722 19.6768 8.2336 19.8046 8.53821C19.9324 8.84282 19.9988 9.16967 20 9.5V10.5C20 11.163 19.7366 11.7989 19.2678 12.2678C18.7989 12.7366 18.163 13 17.5 13C17.44 13 17.386 13 17.367 13.049C17.348 13.098 17.358 13.129 17.407 13.17C17.6425 13.4014 17.8299 13.6771 17.9583 13.9813C18.0867 14.2854 18.1535 14.612 18.155 14.9422C18.1565 15.2723 18.0926 15.5995 17.9669 15.9048C17.8413 16.2101 17.6564 16.4875 17.423 16.721L16.723 17.427C16.2533 17.894 15.6178 18.1561 14.9555 18.1561C14.2932 18.1561 13.6577 17.894 13.188 17.427C13.188 17.427 13.132 17.359 13.076 17.379C13.0561 17.385 13.0385 17.3971 13.0258 17.4136C13.013 17.4301 13.0058 17.4502 13.005 17.471C13.0076 17.8018 12.9448 18.1299 12.8202 18.4364C12.6955 18.7428 12.5115 19.0216 12.2786 19.2567C12.0458 19.4917 11.7688 19.6784 11.4636 19.806C11.1583 19.9335 10.8308 19.9995 10.5 20ZM7.671 15.532L7.715 15.55C8.09376 15.7095 8.4174 15.9766 8.64581 16.3182C8.87422 16.6599 8.99737 17.061 9 17.472C8.99732 17.5397 9.00822 17.6073 9.03205 17.6707C9.05588 17.7341 9.09216 17.7922 9.13875 17.8414C9.18534 17.8906 9.2413 17.9299 9.30334 17.9572C9.36538 17.9844 9.43225 17.999 9.5 18H10.5C10.6326 18 10.7598 17.9473 10.8536 17.8536C10.9473 17.7598 11 17.6326 11 17.5C11.0002 17.0803 11.1247 16.67 11.3578 16.321C11.591 15.972 11.9223 15.6999 12.31 15.539C12.6899 15.3825 13.1077 15.3418 13.5107 15.4221C13.9137 15.5023 14.284 15.6999 14.575 15.99C14.6208 16.0404 14.6762 16.081 14.7381 16.1094C14.7999 16.1379 14.8668 16.1536 14.9348 16.1557C15.0029 16.1577 15.0706 16.1461 15.134 16.1214C15.1975 16.0967 15.2553 16.0595 15.304 16.012L16.004 15.312C16.0506 15.2656 16.0875 15.2104 16.1127 15.1496C16.1379 15.0889 16.1509 15.0238 16.1509 14.958C16.1509 14.8922 16.1379 14.8271 16.1127 14.7664C16.0875 14.7056 16.0506 14.6504 16.004 14.604C15.7144 14.3127 15.5154 13.9438 15.4311 13.5418C15.3468 13.1399 15.3808 12.7221 15.529 12.339C15.535 12.323 15.54 12.308 15.547 12.292L15.553 12.278C15.7106 11.8987 15.9774 11.5747 16.3194 11.3472C16.6614 11.1197 17.0632 10.9988 17.474 11C17.5416 11.0025 17.609 10.9915 17.6722 10.9676C17.7355 10.9437 17.7933 10.9074 17.8424 10.8608C17.8914 10.8142 17.9306 10.7583 17.9576 10.6963C17.9847 10.6344 17.9991 10.5676 18 10.5V9.5C18 9.36739 17.9473 9.24021 17.8536 9.14645C17.7598 9.05268 17.6326 9 17.5 9C17.0828 9.00468 16.6739 8.88416 16.3259 8.65403C15.9779 8.42389 15.707 8.09471 15.548 7.709L15.529 7.663C15.3772 7.28566 15.3402 6.87191 15.4225 6.47361C15.5049 6.07532 15.703 5.71019 15.992 5.424C16.0419 5.37801 16.0822 5.32248 16.1103 5.26069C16.1384 5.19889 16.1539 5.13209 16.1557 5.06422C16.1576 4.99636 16.1458 4.9288 16.1211 4.86556C16.0965 4.80231 16.0593 4.74466 16.012 4.696L15.312 3.996C15.2655 3.9496 15.2103 3.91282 15.1495 3.88777C15.0888 3.86272 15.0237 3.84988 14.958 3.85C14.8922 3.85001 14.8271 3.86301 14.7664 3.88823C14.7056 3.91346 14.6504 3.95042 14.604 3.997C14.3083 4.29127 13.9327 4.49214 13.5237 4.57463C13.1148 4.65713 12.6906 4.61761 12.304 4.461C11.9177 4.30639 11.5868 4.03922 11.3542 3.69416C11.1217 3.3491 10.9983 2.9421 11 2.526C11.0025 2.45842 10.9915 2.39102 10.9676 2.32776C10.9437 2.2645 10.9074 2.20666 10.8608 2.15765C10.8142 2.10864 10.7583 2.06944 10.6963 2.04236C10.6344 2.01529 10.5676 2.00089 10.5 2H9.5C9.36739 2 9.24021 2.05268 9.14645 2.14645C9.05268 2.24021 9 2.36739 9 2.5C9.00302 2.91545 8.88275 3.32245 8.65439 3.66952C8.42604 4.0166 8.09987 4.28814 7.71715 4.44979C7.33443 4.61144 6.91237 4.65594 6.50435 4.57765C6.09634 4.49937 5.72071 4.30182 5.425 4.01C5.37934 3.96013 5.32415 3.91992 5.26268 3.89174C5.20122 3.86356 5.13473 3.84798 5.06714 3.84593C4.99956 3.84388 4.93225 3.85539 4.86919 3.8798C4.80613 3.9042 4.7486 3.94099 4.7 3.988L3.988 4.7C3.89426 4.79376 3.84161 4.92092 3.84161 5.0535C3.84161 5.18608 3.89426 5.31324 3.988 5.407C4.28487 5.69762 4.48834 6.07016 4.57242 6.477C4.65649 6.88384 4.61735 7.30651 4.46 7.691C4.43347 7.75737 4.39995 7.82073 4.36 7.88C4.18316 8.21384 3.91978 8.49397 3.59746 8.69102C3.27514 8.88807 2.90575 8.99479 2.528 9C2.46029 8.99732 2.39273 9.00822 2.3293 9.03205C2.26587 9.05588 2.20785 9.09216 2.15865 9.13875C2.10945 9.18534 2.07006 9.2413 2.04282 9.30334C2.01557 9.36538 2.00101 9.43225 2 9.5V10.5C2 10.6326 2.05268 10.7598 2.14645 10.8536C2.24021 10.9473 2.36739 11 2.5 11C2.91367 10.9953 3.31938 11.1138 3.66542 11.3405C4.01146 11.5672 4.28216 11.8919 4.443 12.273L4.449 12.287C4.458 12.308 4.466 12.328 4.473 12.35C4.61912 12.7281 4.65269 13.1404 4.56964 13.5372C4.4866 13.934 4.29049 14.2982 4.005 14.586C3.95512 14.6331 3.91525 14.6898 3.88776 14.7527C3.86027 14.8156 3.84573 14.8834 3.845 14.952C3.84442 15.0179 3.85704 15.0833 3.88211 15.1443C3.90718 15.2052 3.94421 15.2606 3.991 15.307L4.697 16.013C4.79076 16.1067 4.91792 16.1594 5.0505 16.1594C5.18308 16.1594 5.31024 16.1067 5.404 16.013C5.69242 15.7183 6.06147 15.5155 6.46481 15.4299C6.86815 15.3443 7.28778 15.3798 7.671 15.532Z" fill="#A7AEC1"/>
</svg>
