<svg width="20" height="20" viewBox="0 0 20 20" fill="none" xmlns="http://www.w3.org/2000/svg">
<g clip-path="url(#clip0_115_141)">
<g clip-path="url(#clip1_115_141)">
<path d="M8.12518 3.75H4.37518C4.03001 3.75 3.75018 4.02982 3.75018 4.375V8.125C3.75018 8.47018 4.03001 8.75 4.37518 8.75H8.12518C8.47036 8.75 8.75018 8.47018 8.75018 8.125V4.375C8.75018 4.02982 8.47036 3.75 8.12518 3.75Z" stroke="#3949AB" stroke-width="1.5" stroke-linecap="round" stroke-linejoin="round"/>
<path d="M8.12518 11.25H4.37518C4.03001 11.25 3.75018 11.5298 3.75018 11.875V15.625C3.75018 15.9702 4.03001 16.25 4.37518 16.25H8.12518C8.47036 16.25 8.75018 15.9702 8.75018 15.625V11.875C8.75018 11.5298 8.47036 11.25 8.12518 11.25Z" stroke="#3949AB" stroke-width="1.5" stroke-linecap="round" stroke-linejoin="round"/>
<path d="M15.6252 3.75H11.8752C11.53 3.75 11.2502 4.02982 11.2502 4.375V8.125C11.2502 8.47018 11.53 8.75 11.8752 8.75H15.6252C15.9704 8.75 16.2502 8.47018 16.2502 8.125V4.375C16.2502 4.02982 15.9704 3.75 15.6252 3.75Z" stroke="#3949AB" stroke-width="1.5" stroke-linecap="round" stroke-linejoin="round"/>
<path d="M11.2502 11.25V13.75" stroke="#3949AB" stroke-width="1.5" stroke-linecap="round" stroke-linejoin="round"/>
<path d="M11.2502 16.25H13.7502V11.25" stroke="#3949AB" stroke-width="1.5" stroke-linecap="round" stroke-linejoin="round"/>
<path d="M13.7502 12.5H16.2502" stroke="#3949AB" stroke-width="1.5" stroke-linecap="round" stroke-linejoin="round"/>
<path d="M16.2502 15V16.25" stroke="#3949AB" stroke-width="1.5" stroke-linecap="round" stroke-linejoin="round"/>
</g>
</g>
<defs>
<clipPath id="clip0_115_141">
<rect width="20" height="20" fill="white"/>
</clipPath>
<clipPath id="clip1_115_141">
<rect width="20" height="20" fill="white"/>
</clipPath>
</defs>
</svg>
