<svg width="48" height="48" viewBox="0 0 48 48" fill="none" xmlns="http://www.w3.org/2000/svg">
<rect width="48" height="48" rx="12" fill="#D3EFE5"/>
<path d="M25.0012 33C25.0012 33.553 24.5532 34 24.0012 34H20.0012C17.2442 34 15.0012 31.757 15.0012 29V19C15.0012 16.243 17.2442 14 20.0012 14H24.0012C24.5532 14 25.0012 14.447 25.0012 15C25.0012 15.553 24.5532 16 24.0012 16H20.0012C18.3472 16 17.0012 17.346 17.0012 19V29C17.0012 30.654 18.3472 32 20.0012 32H24.0012C24.5532 32 25.0012 32.447 25.0012 33ZM32.9232 24.382C33.0242 24.138 33.0242 23.862 32.9232 23.618C32.8722 23.495 32.7991 23.385 32.7061 23.292L28.7072 19.293C28.3162 18.902 27.6842 18.902 27.2932 19.293C26.9022 19.684 26.9022 20.316 27.2932 20.707L29.5862 23H22.0002C21.4482 23 21.0002 23.447 21.0002 24C21.0002 24.553 21.4482 25 22.0002 25H29.5862L27.2932 27.293C26.9022 27.684 26.9022 28.316 27.2932 28.707C27.4882 28.902 27.7442 29 28.0002 29C28.2562 29 28.5122 28.902 28.7072 28.707L32.7061 24.708C32.7991 24.615 32.8732 24.505 32.9232 24.382Z" fill="#22B07D"/>
</svg>
