<svg width="48" height="48" viewBox="0 0 48 48" fill="none" xmlns="http://www.w3.org/2000/svg">
<rect width="48" height="48" rx="12" fill="#D7DAF1"/>
<path d="M19 22.0005C19 21.4475 19.448 21.0005 20 21.0005H28C28.552 21.0005 29 21.4475 29 22.0005C29 22.5535 28.552 23.0005 28 23.0005H20C19.448 23.0005 19 22.5535 19 22.0005ZM21 20.0005H27C27.552 20.0005 28 19.5535 28 19.0005C28 18.4475 27.552 18.0005 27 18.0005H21C20.448 18.0005 20 18.4475 20 19.0005C20 19.5535 20.448 20.0005 21 20.0005ZM34 25.4875V28.0005C34 30.7575 31.757 33.0005 29 33.0005H19C16.243 33.0005 14 30.7575 14 28.0005V25.4875C14 25.0555 14.069 24.6294 14.205 24.2214L16.14 18.4185C16.822 16.3735 18.728 14.9995 20.883 14.9995H27.117C29.272 14.9995 31.179 16.3735 31.86 18.4185L33.795 24.2214C33.931 24.6294 34 25.0565 34 25.4875ZM16.387 24.0005H21C21.552 24.0005 22 24.4475 22 25.0005C22 26.1035 22.897 27.0005 24 27.0005C25.103 27.0005 26 26.1035 26 25.0005C26 24.4475 26.448 24.0005 27 24.0005H31.613L29.963 19.0525C29.554 17.8245 28.41 17.0005 27.117 17.0005H20.883C19.59 17.0005 18.446 17.8245 18.037 19.0525L16.387 24.0005ZM32 28.0005V26.0005H27.874C27.429 27.7245 25.861 29.0005 24 29.0005C22.139 29.0005 20.572 27.7245 20.126 26.0005H16V28.0005C16 29.6545 17.346 31.0005 19 31.0005H29C30.654 31.0005 32 29.6545 32 28.0005Z" fill="#3C4ABC"/>
</svg>
