<svg width="48" height="48" viewBox="0 0 48 48" fill="none" xmlns="http://www.w3.org/2000/svg">
<rect width="48" height="48" rx="12" fill="#FECBF2"/>
<path d="M20.293 19.7073C19.902 19.3163 19.902 18.6843 20.293 18.2933L23.293 15.2932C23.684 14.9022 24.316 14.9022 24.707 15.2932L27.707 18.2933C28.098 18.6843 28.098 19.3163 27.707 19.7073C27.512 19.9023 27.256 20.0003 27 20.0003C26.744 20.0003 26.488 19.9023 26.293 19.7073L25 18.4142V23.0003C25 23.5533 24.552 24.0003 24 24.0003C23.448 24.0003 23 23.5533 23 23.0003V18.4142L21.707 19.7073C21.316 20.0983 20.684 20.0983 20.293 19.7073ZM29 22.0003C28.448 22.0003 28 22.4473 28 23.0003C28 23.5533 28.448 24.0003 29 24.0003C30.654 24.0003 32 25.3463 32 27.0003V28.0003C32 29.6543 30.654 31.0003 29 31.0003H19C17.346 31.0003 16 29.6543 16 28.0003V27.0003C16 25.3463 17.346 24.0003 19 24.0003C19.552 24.0003 20 23.5533 20 23.0003C20 22.4473 19.552 22.0003 19 22.0003C16.243 22.0003 14 24.2433 14 27.0003V28.0003C14 30.7573 16.243 33.0003 19 33.0003H29C31.757 33.0003 34 30.7573 34 28.0003V27.0003C34 24.2433 31.757 22.0003 29 22.0003ZM30 27.0003C30 26.4483 29.552 26.0003 29 26.0003C28.448 26.0003 28 26.4483 28 27.0003C28 27.5523 28.448 28.0003 29 28.0003C29.552 28.0003 30 27.5523 30 27.0003Z" fill="#FF00C2"/>
</svg>
